<?xml version="1.0" standalone="no"?>
<!DOCTYPE svg PUBLIC "-//W3C//DTD SVG 20010904//EN"
 "http://www.w3.org/TR/2001/REC-SVG-20010904/DTD/svg10.dtd">
<svg version="1.0" xmlns="http://www.w3.org/2000/svg"
 width="1176.000000pt" height="1024.000000pt" viewBox="0 0 1176.000000 1024.000000"
 preserveAspectRatio="xMidYMid meet">

<g transform="translate(0.000000,1024.000000) scale(0.100000,-0.100000)"
fill="#000000" stroke="none">
<path d="M5635 7979 c-243 -12 -243 -12 -207 -16 17 -2 32 -8 32 -14 0 -5 25
-9 56 -9 66 0 84 -14 84 -64 0 -29 4 -36 20 -36 11 0 20 5 20 10 0 6 18 10 39
10 22 0 43 5 46 10 3 6 22 10 41 10 19 0 34 5 34 10 0 6 9 10 20 10 11 0 20 5
20 10 0 6 -9 10 -20 10 -11 0 -20 5 -20 10 0 6 16 10 35 10 25 0 38 -5 42 -17
4 -10 11 -21 17 -25 8 -6 7 -11 -2 -17 -8 -5 -15 -32 -17 -67 -2 -32 0 -52 4
-45 5 7 11 -25 15 -78 7 -81 10 -91 27 -91 16 0 19 -7 19 -40 0 -38 2 -40 30
-40 17 0 30 -4 30 -10 0 -5 -10 -10 -22 -10 -19 0 -20 -2 -8 -10 8 -5 27 -10
43 -10 33 0 36 -17 5 -23 -13 -2 -2 -3 25 -3 36 1 49 5 53 19 3 9 10 15 15 12
5 -3 6 1 3 9 -4 11 0 16 10 16 9 0 16 5 16 11 0 5 5 7 10 4 6 -3 10 4 10 18 0
24 31 61 43 52 4 -3 5 -2 3 1 -3 3 4 15 15 27 10 11 19 27 19 34 0 7 4 13 10
13 5 0 6 7 3 17 -4 10 -2 14 4 10 10 -6 40 33 70 93 7 14 23 43 37 65 14 22
31 52 39 66 l14 27 -103 11 c-91 10 -503 33 -529 29 -5 -1 -73 -5 -150 -9z
m252 -171 c-3 -7 -5 -2 -5 12 0 14 2 19 5 13 2 -7 2 -19 0 -25z"/>
<path d="M6476 7923 c-14 -34 -71 -111 -79 -106 -6 3 -7 1 -3 -6 10 -15 -2
-51 -17 -51 -12 0 -77 -92 -77 -109 0 -5 -7 -14 -15 -21 -9 -7 -14 -19 -11
-27 3 -8 2 -12 -2 -9 -12 7 -44 -52 -36 -67 4 -6 4 -9 -1 -5 -4 4 -14 0 -21
-10 -16 -20 -19 -56 -4 -47 16 10 11 -1 -7 -16 -11 -10 -14 -10 -9 -1 4 6 3
12 -2 12 -5 0 -22 -24 -38 -52 -39 -72 -39 -72 -16 -66 13 4 20 1 19 -5 -2 -8
84 -32 88 -24 0 1 13 21 28 44 15 24 27 50 27 58 0 9 4 14 9 11 5 -3 12 5 15
18 3 14 12 31 19 38 6 8 17 23 23 33 33 59 40 70 45 75 4 3 16 25 29 49 12 25
37 68 54 95 46 75 53 86 81 138 l25 47 -38 6 c-20 3 -47 7 -59 9 -12 2 -24 -3
-27 -11z"/>
<path d="M4994 7894 c15 -14 14 -17 -6 -36 l-23 -20 25 15 c33 19 40 57 10 57
-20 0 -20 -1 -6 -16z"/>
<path d="M5192 7890 c0 -14 2 -19 5 -12 2 6 2 18 0 25 -3 6 -5 1 -5 -13z"/>
<path d="M6627 7888 c-20 -32 -104 -182 -140 -248 -17 -30 -37 -66 -46 -80 -9
-14 -26 -43 -36 -65 -11 -22 -28 -52 -37 -66 -10 -14 -15 -29 -11 -33 3 -3 1
-6 -5 -6 -7 0 -12 -9 -12 -19 0 -10 -7 -22 -16 -25 -9 -4 -14 -13 -10 -22 3
-8 2 -12 -3 -9 -10 6 -26 -13 -18 -21 3 -3 63 -21 134 -39 186 -49 303 -81
433 -119 63 -19 167 -48 230 -65 63 -18 131 -36 150 -42 74 -22 175 -49 186
-49 6 0 24 28 39 63 33 74 78 173 110 242 104 222 125 269 125 279 0 13 -206
102 -365 159 -60 21 -234 70 -385 108 -151 38 -283 72 -292 75 -11 3 -22 -4
-31 -18z"/>
<path d="M4870 7881 c-8 -6 -18 -8 -22 -5 -4 3 -7 -12 -6 -32 1 -33 3 -35 15
-18 7 10 11 24 9 31 -3 7 1 13 9 13 7 0 17 5 20 10 8 12 -5 13 -25 1z"/>
<path d="M4937 7867 c-13 -20 -13 -23 2 -23 10 0 17 9 17 23 1 13 1 23 -1 23
-1 0 -9 -10 -18 -23z"/>
<path d="M5080 7870 c0 -12 -7 -32 -16 -45 -9 -14 -14 -25 -11 -25 8 0 47 65
47 79 0 6 -4 11 -10 11 -5 0 -10 -9 -10 -20z"/>
<path d="M6417 7861 c-4 -17 -3 -21 5 -13 5 5 8 16 6 23 -3 8 -7 3 -11 -10z"/>
<path d="M4640 7824 c-47 -14 -98 -28 -114 -32 -28 -7 -26 -8 28 -25 31 -10
61 -15 66 -12 6 3 10 1 10 -4 0 -6 10 -11 23 -11 12 0 44 -7 71 -15 27 -8 52
-13 54 -10 3 3 0 5 -7 5 -7 0 -9 9 -5 25 5 19 3 25 -7 23 -19 -4 -25 62 -7 73
24 16 -24 8 -112 -17z m85 -64 c-3 -5 -16 -10 -28 -9 -20 1 -20 2 3 9 14 4 26
8 28 9 2 1 0 -3 -3 -9z"/>
<path d="M4905 7821 c-3 -5 -1 -12 5 -16 5 -3 10 1 10 9 0 18 -6 21 -15 7z"/>
<path d="M4897 7784 c3 -8 11 -14 19 -14 21 0 17 17 -5 23 -14 3 -18 1 -14 -9z"/>
<path d="M6376 7783 c-6 -14 -5 -15 5 -6 7 7 10 15 7 18 -3 3 -9 -2 -12 -12z"/>
<path d="M4798 7767 c-3 -19 -2 -25 4 -19 6 6 8 18 6 28 -3 14 -5 12 -10 -9z"/>
<path d="M5095 7780 c-3 -6 1 -7 9 -4 18 7 21 14 7 14 -6 0 -13 -4 -16 -10z"/>
<path d="M4847 7740 c-31 -44 -33 -52 -12 -44 8 4 13 10 10 14 -3 5 6 20 20
34 14 14 21 27 17 30 -4 2 -19 -13 -35 -34z"/>
<path d="M4326 7726 c-94 -34 -98 -45 -17 -49 27 -1 45 -5 40 -8 -5 -3 9 -11
32 -18 22 -7 42 -11 44 -9 1 2 6 29 9 61 6 44 4 57 -6 56 -7 0 -53 -15 -102
-33z"/>
<path d="M5007 7753 c-4 -3 -7 -13 -7 -22 1 -13 3 -13 11 2 11 19 8 33 -4 20z"/>
<path d="M4495 7715 c-20 -16 -19 -16 5 -10 25 6 25 6 3 -7 -17 -10 -20 -17
-11 -32 8 -13 7 -20 -2 -26 -9 -6 -6 -10 9 -15 13 -4 25 -4 28 -1 4 3 0 6 -8
6 -8 0 -3 6 11 14 14 7 29 9 35 4 5 -4 23 -8 41 -8 28 0 32 4 36 31 4 26 1 32
-20 40 -51 20 -106 21 -127 4z m142 -21 c-3 -3 -12 -4 -19 -1 -8 3 -5 6 6 6
11 1 17 -2 13 -5z m-44 -11 c-7 -2 -19 -2 -25 0 -7 3 -2 5 12 5 14 0 19 -2 13
-5z m4 -29 c-3 -3 -12 -4 -19 -1 -8 3 -5 6 6 6 11 1 17 -2 13 -5z"/>
<path d="M5040 7699 c0 -5 5 -7 10 -4 6 3 10 8 10 11 0 2 -4 4 -10 4 -5 0 -10
-5 -10 -11z"/>
<path d="M4662 7667 c-2 -19 2 -27 10 -25 16 6 19 55 3 55 -6 0 -12 -13 -13
-30z"/>
<path d="M4945 7670 c-3 -5 1 -10 10 -10 9 0 13 5 10 10 -3 6 -8 10 -10 10 -2
0 -7 -4 -10 -10z"/>
<path d="M4085 7631 c-118 -50 -291 -137 -436 -218 -103 -58 -117 -68 -115
-91 1 -18 10 -29 34 -39 30 -13 32 -17 28 -51 -2 -20 -10 -50 -17 -65 -12 -26
-14 -27 -20 -10 -7 16 -8 16 -8 -3 -1 -25 -24 -48 -36 -36 -5 4 -5 1 -1 -5 4
-7 3 -13 -3 -13 -6 0 -15 -10 -22 -21 -8 -15 -8 -19 0 -15 6 4 11 3 11 -3 0
-8 79 -36 133 -46 9 -2 28 7 42 21 13 13 33 24 45 24 24 0 24 0 5 -36 l-15
-29 53 -17 c53 -18 70 -23 121 -33 16 -3 34 -9 39 -12 17 -10 147 -41 147 -35
0 4 4 1 8 -5 4 -7 26 -14 47 -15 22 -2 43 -7 46 -11 3 -5 22 13 41 40 57 77
87 130 80 137 -3 4 1 4 11 0 10 -3 17 -1 17 5 0 6 12 30 27 52 24 36 25 42 11
50 -12 6 -16 26 -16 79 -1 38 3 72 9 75 5 4 9 23 9 44 l0 38 -107 2 c-59 1
-109 4 -112 6 -2 3 23 5 57 5 35 0 62 4 62 10 0 6 9 10 19 10 11 0 21 6 24 13
3 8 11 5 24 -10 25 -28 33 -29 33 -3 0 16 7 20 33 21 17 0 26 3 20 6 -7 2 -13
14 -13 26 0 18 2 19 10 7 8 -12 10 -11 10 8 0 12 -4 22 -10 22 -5 0 -10 5 -10
11 0 5 5 7 10 4 6 -4 10 6 10 24 0 47 -8 59 -37 53 -19 -4 -24 -2 -18 8 6 10
2 11 -19 6 -17 -4 -25 -3 -24 5 2 9 -109 46 -142 48 -3 0 -45 -17 -95 -38z
m255 -514 c0 -7 -4 -6 -10 3 -8 12 -10 10 -11 -10 0 -14 -3 -19 -6 -12 -7 18
5 44 17 37 5 -3 10 -12 10 -18z m-65 -96 c-6 -21 -25 -29 -25 -11 0 6 5 10 10
10 6 0 10 8 10 17 0 9 3 14 6 10 3 -3 3 -15 -1 -26z"/>
<path d="M4838 7643 c7 -3 16 -2 19 1 4 3 -2 6 -13 5 -11 0 -14 -3 -6 -6z"/>
<path d="M4915 7619 c-4 -6 -5 -12 -2 -15 2 -3 7 2 10 11 7 17 1 20 -8 4z"/>
<path d="M5210 7596 c0 -2 7 -7 16 -10 8 -3 12 -2 9 4 -6 10 -25 14 -25 6z"/>
<path d="M4886 7575 c-9 -26 -7 -32 5 -12 6 10 9 21 6 23 -2 3 -7 -2 -11 -11z"/>
<path d="M4735 7570 c-3 -5 -1 -10 4 -10 6 0 11 5 11 10 0 6 -2 10 -4 10 -3 0
-8 -4 -11 -10z"/>
<path d="M4550 7560 c8 -5 20 -10 25 -10 6 0 3 5 -5 10 -8 5 -19 10 -25 10 -5
0 -3 -5 5 -10z"/>
<path d="M7705 7505 c-14 -30 -37 -81 -51 -112 -14 -32 -45 -101 -69 -153 -24
-52 -62 -135 -84 -185 l-40 -90 62 -17 c61 -16 77 -16 77 3 0 5 20 52 45 103
25 52 45 97 45 100 0 3 17 43 39 88 21 46 49 106 61 133 12 28 31 67 41 87
l19 38 -60 30 -59 30 -26 -55z"/>
<path d="M4615 7540 c27 -12 35 -12 35 0 0 6 -12 10 -27 9 -25 0 -26 -1 -8 -9z"/>
<path d="M4818 7543 c12 -2 22 -8 22 -13 0 -5 8 -6 17 -3 15 6 15 7 -3 14 -10
4 -28 7 -39 7 -17 -1 -16 -1 3 -5z"/>
<path d="M5230 7540 c-9 -6 -10 -10 -3 -10 6 0 15 5 18 10 8 12 4 12 -15 0z"/>
<path d="M4568 7533 c7 -3 16 -2 19 1 4 3 -2 6 -13 5 -11 0 -14 -3 -6 -6z"/>
<path d="M4604 7514 c3 -8 1 -25 -6 -37 -10 -20 -10 -21 6 -8 10 8 15 23 12
34 -3 13 0 17 10 13 9 -3 12 -1 9 4 -10 17 -38 12 -31 -6z"/>
<path d="M4826 7483 c-6 -14 -5 -15 5 -6 7 7 10 15 7 18 -3 3 -9 -2 -12 -12z"/>
<path d="M7750 7213 c-67 -148 -124 -273 -127 -279 -4 -10 25 -20 202 -69 28
-8 124 -35 215 -60 91 -25 184 -51 208 -58 23 -6 42 -14 42 -18 0 -4 -24 0
-52 8 -71 20 -268 73 -466 125 -141 37 -164 41 -172 28 -7 -11 -4 -16 13 -21
23 -5 28 -38 12 -86 -6 -19 -2 -23 37 -33 23 -6 54 -15 68 -20 14 -5 86 -25
160 -45 74 -20 182 -50 239 -66 58 -16 108 -26 112 -22 4 5 26 55 49 113 94
239 100 250 132 250 16 0 38 -5 49 -10 16 -9 22 -6 40 25 16 26 27 35 43 33
12 -2 20 -10 18 -18 -16 -70 -17 -67 27 -75 40 -7 46 -13 41 -45 -1 -15 -88
-244 -116 -308 -8 -18 -12 -38 -9 -43 3 -5 31 -16 61 -25 74 -21 63 -28 -15
-10 -57 13 -63 13 -68 -2 -3 -9 -30 -78 -58 -152 -29 -74 -69 -178 -89 -230
-61 -158 -48 -143 -114 -136 l-57 6 -44 -110 c-23 -61 -49 -117 -57 -125 -12
-11 -10 -14 16 -20 16 -4 32 -10 35 -15 3 -4 -14 -3 -36 3 -66 16 -68 35 -15
169 25 64 46 118 46 121 0 3 -16 8 -35 11 -19 4 -41 14 -49 22 -18 17 -22 6
88 274 120 292 116 280 91 280 -8 0 -63 14 -122 31 -98 27 -157 43 -407 108
-43 12 -82 18 -87 16 -17 -11 4 -33 37 -40 19 -3 38 -13 41 -20 5 -15 -29
-103 -91 -238 -19 -40 -41 -89 -50 -109 -37 -87 -50 -117 -87 -198 -57 -123
-49 -115 -113 -112 -52 2 -57 0 -68 -24 -15 -33 -11 -35 114 -71 54 -15 98
-31 98 -35 0 -12 -13 -10 -102 16 -144 41 -133 41 -153 -4 -13 -30 -24 -40
-41 -40 -13 0 -26 5 -29 10 -4 6 -15 8 -26 5 -24 -8 -24 6 1 55 l20 39 -54 15
c-80 24 -90 21 -61 -18 13 -17 13 -22 1 -35 -8 -9 -20 -37 -27 -63 -17 -61
-12 -82 112 -561 31 -117 38 -162 30 -170 -8 -8 -14 -8 -23 1 -9 9 -7 13 5 18
9 3 14 10 11 15 -3 5 -10 7 -15 4 -5 -4 -9 -1 -9 4 0 6 -7 11 -16 11 -13 0
-15 -7 -10 -34 4 -22 2 -37 -5 -42 -8 -5 -9 -3 -4 6 6 10 4 12 -9 7 -14 -6
-16 -3 -11 13 4 14 -2 27 -22 45 -22 19 -24 24 -10 25 9 0 17 -4 17 -10 0 -14
27 -13 36 2 4 7 3 8 -5 4 -14 -9 -39 15 -33 33 3 8 -1 12 -9 9 -7 -2 -21 4
-32 15 -16 16 -17 21 -6 28 13 8 5 13 -14 10 -14 -2 -19 27 -7 49 8 15 8 20 1
16 -6 -4 -11 -4 -12 1 -3 30 -10 48 -29 68 -13 13 -19 29 -15 37 3 7 0 4 -9
-6 -14 -17 -16 -17 -22 -3 -3 9 -3 20 0 25 3 6 -1 12 -9 16 -8 3 -12 12 -9 20
4 9 -1 13 -13 13 -11 -1 -18 5 -18 16 0 10 -9 25 -20 33 -17 13 -18 16 -5 24
12 7 11 13 -10 35 -13 14 -25 35 -27 48 -2 12 -13 30 -24 40 -12 10 -19 20
-16 23 3 4 -4 15 -16 26 -12 11 -17 17 -10 14 7 -4 9 1 6 15 -4 15 -8 17 -14
8 -4 -8 -11 -10 -15 -6 -4 4 -3 12 3 18 14 14 -14 49 -33 42 -8 -3 -14 0 -14
6 0 6 -7 11 -15 11 -9 0 -20 12 -26 27 -7 20 -13 23 -21 15 -7 -7 -16 -12 -22
-12 -6 0 -5 5 1 11 9 9 9 15 0 23 -17 17 -47 27 -47 16 0 -6 4 -10 10 -10 5 0
7 -7 4 -15 -4 -9 0 -15 7 -15 9 0 6 -5 -5 -12 -15 -8 -21 -8 -24 1 -5 15 -32
-5 -32 -25 0 -7 -9 -18 -20 -24 -14 -8 -19 -17 -15 -29 3 -12 0 -21 -10 -25
-9 -3 -15 -14 -13 -23 2 -11 -6 -22 -19 -28 -13 -5 -23 -13 -23 -17 0 -11 -38
-55 -80 -96 -19 -18 -33 -41 -32 -50 3 -14 2 -14 -14 -1 -21 17 -18 17 -40 -2
-11 -9 -29 -20 -41 -23 -13 -4 -23 -12 -23 -17 0 -5 -11 -7 -24 -3 -19 4 -30
-1 -47 -20 -12 -14 -28 -26 -34 -26 -6 0 -31 -21 -55 -46 -32 -34 -48 -44 -64
-40 -12 3 -28 6 -37 6 -8 0 -64 32 -125 70 -159 102 -313 157 -509 180 -124
14 -305 0 -371 -30 -27 -12 -69 -28 -94 -35 -25 -7 -67 -22 -95 -33 -71 -30
-255 -62 -255 -45 0 22 6 19 -385 138 -66 20 -148 45 -183 56 -34 11 -73 19
-86 17 -12 -1 -31 5 -40 15 -18 17 -66 24 -66 8 0 -4 -13 -25 -30 -46 -16 -20
-28 -41 -25 -45 2 -4 28 -14 57 -23 183 -56 560 -170 598 -181 27 -7 45 -18
45 -27 0 -17 -1 -17 -105 14 -47 14 -101 29 -120 35 -19 5 -135 42 -256 81
-122 39 -228 71 -235 71 -8 0 -26 -19 -41 -42 -15 -24 -48 -72 -74 -108 -26
-36 -75 -105 -109 -155 -94 -138 -151 -219 -243 -348 -46 -65 -83 -120 -81
-122 2 -2 85 7 184 21 99 13 192 24 208 24 15 0 35 9 45 21 29 35 68 49 134
48 77 -1 96 -7 136 -39 38 -30 42 -65 12 -103 l-21 -26 26 -73 c15 -40 38
-107 52 -148 14 -41 30 -79 34 -84 5 -6 9 -18 9 -28 0 -9 7 -32 16 -51 l16
-33 74 11 c41 7 77 15 80 18 9 9 -5 77 -16 77 -6 0 -10 23 -10 51 0 44 -4 55
-30 79 -18 17 -30 38 -30 54 0 19 -5 26 -20 26 -19 0 -20 7 -20 140 0 133 1
140 20 140 17 0 20 7 20 40 0 33 3 40 20 40 16 0 20 7 20 30 0 17 5 30 10 30
6 0 10 7 10 16 0 20 24 44 45 44 13 0 15 7 11 31 -3 24 -2 29 7 20 6 -6 35
-11 64 -11 46 0 53 3 53 20 0 13 7 20 20 20 27 0 25 15 -2 27 -20 9 -19 10 12
10 19 0 36 5 38 11 2 6 21 -2 47 -19 23 -16 49 -29 57 -29 8 0 40 -9 71 -19
31 -11 76 -23 101 -26 l44 -7 -23 -53 c-23 -50 -23 -65 -3 -65 5 0 6 5 2 12
-4 7 -3 8 5 4 9 -6 9 -11 0 -22 -10 -12 -9 -17 1 -27 8 -8 11 -8 7 -1 -4 7 -1
17 6 23 10 8 18 5 30 -9 9 -11 17 -26 18 -33 0 -6 5 3 10 21 5 17 14 32 19 32
5 0 25 33 43 73 19 39 42 81 50 92 15 19 16 15 17 -60 0 -120 27 -204 86 -274
31 -37 185 -157 197 -153 4 1 7 -2 7 -7 0 -5 10 -11 23 -14 12 -2 42 -12 67
-20 25 -9 71 -21 103 -28 38 -8 56 -17 53 -25 -6 -16 28 -8 77 18 21 11 41 18
43 15 7 -7 104 92 101 103 -3 12 91 90 109 90 38 0 40 -98 4 -215 -31 -102
-41 -145 -45 -198 -6 -68 -30 -148 -54 -179 -11 -14 -17 -28 -14 -32 4 -3 -2
-13 -13 -21 -10 -8 -15 -15 -11 -15 5 0 1 -7 -7 -16 -9 -8 -16 -24 -16 -34 0
-10 -8 -38 -19 -62 -60 -142 -72 -228 -35 -264 26 -26 81 -44 133 -44 23 0 40
-4 37 -9 -3 -5 1 -11 9 -15 8 -3 15 -1 15 4 0 6 9 10 20 10 11 0 20 4 20 9 0
16 31 21 53 9 19 -10 20 -9 10 4 -10 12 -10 15 2 15 8 0 15 -4 15 -9 0 -5 5
-6 10 -3 6 3 10 14 10 24 0 24 26 46 35 31 3 -6 11 -8 16 -5 8 5 13 -7 11 -27
-1 -3 5 -9 14 -12 9 -4 12 -2 8 5 -4 8 1 9 15 4 23 -7 55 11 45 26 -3 5 2 9
11 9 12 0 15 -5 11 -16 -6 -15 -4 -15 16 -2 12 8 25 26 28 39 4 17 8 20 14 11
4 -7 14 -11 22 -8 19 7 18 -9 -2 -29 -9 -9 -13 -19 -10 -23 4 -3 -35 -14 -86
-23 -157 -28 -213 -40 -222 -50 -6 -5 -23 -9 -39 -9 -16 0 -26 -4 -22 -10 3
-6 -1 -10 -10 -10 -20 0 -65 -29 -65 -42 0 -5 -12 -19 -26 -32 -26 -22 -27
-23 -9 -49 9 -15 22 -27 27 -27 5 0 6 -5 3 -10 -3 -6 1 -10 10 -10 8 0 18 -8
22 -17 8 -26 95 -113 105 -107 4 3 8 -2 8 -10 0 -9 7 -16 15 -16 8 0 15 -9 15
-20 0 -13 7 -20 20 -20 11 0 20 -4 20 -9 0 -11 60 -33 60 -23 0 4 4 3 8 -3 4
-5 24 -19 44 -29 34 -17 40 -18 55 -4 33 28 43 30 43 10 0 -16 -5 -19 -22 -15
-13 3 -19 2 -15 -3 4 -4 23 -9 42 -9 29 -1 33 1 23 12 -9 11 -9 17 2 23 9 6
17 5 21 -2 5 -7 8 -7 13 0 4 6 15 9 25 7 12 -2 32 9 50 26 17 16 31 25 31 20
0 -5 14 4 30 21 25 25 36 29 60 24 28 -5 44 8 19 16 -6 2 -7 12 -1 27 6 16 11
20 16 13 12 -20 36 -13 68 18 17 17 38 30 47 28 9 -2 30 7 45 20 16 12 35 22
43 22 10 0 12 6 8 20 -3 11 -2 20 3 20 6 0 12 -5 14 -11 2 -7 11 -7 28 0 14 5
18 10 10 11 -11 0 -8 6 9 21 22 18 25 18 42 3 17 -15 18 -15 24 9 4 13 12 24
18 24 31 -1 47 4 47 14 0 6 -7 9 -15 5 -31 -12 -13 4 20 18 26 11 33 19 28 31
-3 10 0 21 7 25 8 5 15 15 16 24 1 9 10 23 19 32 9 9 14 23 11 30 -3 7 -1 16
4 19 21 13 8 24 -35 31 -25 3 -48 11 -52 17 -3 6 -1 7 6 3 6 -4 42 1 79 12 63
19 211 38 199 26 -3 -3 -31 -14 -64 -23 -32 -10 -57 -23 -56 -29 1 -5 -7 -8
-18 -5 -12 4 -25 0 -30 -8 -13 -21 -11 -29 7 -29 8 0 13 -4 9 -10 -3 -5 -12
-7 -19 -4 -23 9 -27 -35 -4 -47 15 -8 17 -13 7 -25 -9 -11 -8 -14 2 -14 11 0
11 -2 -1 -10 -13 -8 -12 -10 3 -10 9 0 17 -7 17 -15 0 -13 4 -14 20 -5 11 6
18 15 15 21 -4 5 1 9 9 9 17 0 22 -15 7 -24 -4 -3 -6 -17 -3 -32 3 -16 7 -21
12 -14 6 9 9 9 15 0 4 -7 4 -15 -1 -19 -16 -11 -16 -34 1 -28 8 4 15 2 15 -3
0 -6 7 -10 15 -10 17 0 20 -16 5 -25 -6 -4 -8 -11 -4 -16 3 -5 10 -7 15 -3 5
3 7 9 4 14 -6 9 25 23 33 15 3 -3 0 -5 -7 -5 -7 0 -10 -4 -6 -10 3 -5 13 -6
22 -3 11 4 14 3 9 -5 -4 -7 -2 -12 4 -12 6 0 13 6 16 14 3 8 14 16 25 19 10 3
17 1 13 -4 -10 -17 12 -9 45 16 25 18 38 22 51 15 10 -5 20 -6 24 -3 3 3 6 1
6 -5 0 -11 -14 -16 -33 -13 -5 1 -6 -3 -3 -8 9 -14 -59 -96 -181 -219 -40 -40
-67 -75 -60 -77 7 -2 21 -5 32 -8 11 -3 61 -19 110 -37 50 -18 95 -33 100 -35
6 -1 24 -7 40 -14 17 -7 42 -15 58 -18 15 -3 30 -9 32 -13 8 -13 -112 19 -172
46 -17 8 -37 14 -45 14 -18 0 -156 45 -165 53 -11 11 -16 9 -86 -41 l-67 -49
67 -21 c60 -19 204 -69 211 -73 1 -1 5 -2 10 -3 4 -1 32 -10 62 -21 30 -11 57
-20 60 -21 29 -8 70 -27 66 -31 -2 -3 -44 9 -93 25 -48 17 -151 50 -228 73
-77 23 -146 46 -152 51 -9 7 -52 -10 -145 -57 -167 -83 -216 -93 -525 -102
-128 -3 -231 -9 -231 -12 1 -3 -21 -52 -49 -109 -29 -56 -52 -105 -53 -107 -1
-3 -20 -44 -43 -92 -23 -49 -42 -93 -42 -100 0 -6 -4 -15 -8 -19 -9 -9 -158
-314 -160 -329 -1 -5 -6 -15 -12 -21 -16 -19 -25 7 -10 30 8 12 30 59 50 106
19 47 47 108 60 136 14 28 25 60 25 72 0 11 4 22 8 24 8 3 72 129 72 142 0 3
17 43 39 88 58 124 81 179 81 194 0 11 -17 14 -65 14 -50 0 -65 -3 -65 -14 0
-8 -12 -37 -26 -63 -14 -26 -43 -88 -65 -138 -21 -49 -52 -117 -68 -150 -16
-32 -27 -63 -25 -67 3 -4 1 -8 -4 -8 -8 0 -57 -99 -55 -110 1 -3 -4 -11 -10
-19 -7 -8 -21 -35 -32 -60 -30 -66 -65 -121 -78 -121 -9 0 -9 2 -1 8 7 4 19
27 27 52 8 25 24 66 36 92 14 34 16 48 8 52 -7 2 -5 5 5 5 9 1 21 13 27 29 13
34 50 121 80 187 13 28 30 66 38 85 8 19 21 48 29 64 8 16 14 35 14 42 0 7 3
14 8 16 8 4 66 118 61 122 -2 1 -29 8 -59 15 -30 8 -59 17 -65 21 -11 9 -14
10 -52 11 -25 0 -25 1 -8 8 11 5 25 5 31 0 11 -9 24 -2 24 12 0 5 -7 5 -17 2
-10 -4 -14 -2 -10 4 3 5 -4 9 -16 8 -15 -1 -26 7 -34 24 -11 25 -11 25 -12 4
-1 -13 -6 -23 -12 -23 -6 0 -9 7 -5 15 6 16 -18 17 -41 2 -7 -5 -13 -5 -13 -1
0 4 -8 0 -18 -9 -16 -15 -24 -14 -102 3 -47 10 -105 26 -129 34 -57 21 -59 20
-31 -9 12 -13 70 -48 127 -77 58 -29 100 -54 95 -56 -6 -2 -21 2 -34 9 -13 8
-26 13 -30 14 -3 0 -10 3 -14 8 -4 4 -24 7 -44 7 -24 0 -43 7 -55 20 -10 11
-28 20 -39 20 -12 0 -30 7 -40 15 -11 8 -28 15 -39 15 -20 0 -47 22 -47 38 0
16 -28 22 -105 22 -52 0 -78 4 -89 15 -8 8 -31 15 -50 15 -20 0 -36 5 -36 10
0 6 -9 10 -20 10 -11 0 -20 5 -20 11 0 16 -26 39 -44 39 -9 0 -16 5 -16 10 0
6 -12 10 -26 10 -26 0 -54 20 -54 39 0 6 -4 11 -10 11 -5 0 -10 7 -10 15 0 8
-9 15 -20 15 -13 0 -20 7 -20 20 0 13 7 20 20 20 11 0 20 5 20 10 0 6 -9 10
-20 10 -17 0 -20 7 -20 50 0 28 -4 50 -10 50 -5 0 -10 -13 -10 -30 0 -27 -3
-30 -30 -30 -29 0 -30 1 -30 50 0 28 -4 50 -10 50 -5 0 -10 9 -10 20 0 11 -4
20 -10 20 -5 0 -10 9 -10 20 0 21 -24 28 -35 10 -3 -5 -14 -10 -24 -10 -10 0
-26 -9 -35 -19 -16 -17 -16 -26 -6 -78 19 -91 57 -182 99 -238 45 -59 93 -153
141 -275 19 -46 56 -114 83 -150 27 -36 40 -56 27 -45 -40 36 -81 105 -140
236 -33 71 -72 148 -88 172 -16 23 -41 60 -55 81 -15 21 -44 90 -64 153 l-36
113 -24 -34 c-12 -19 -23 -38 -23 -42 0 -4 -8 -16 -17 -26 -15 -17 -15 -25 -4
-66 17 -66 55 -147 90 -190 33 -42 84 -142 131 -254 39 -95 94 -182 163 -257
34 -37 39 -44 13 -21 -64 59 -126 146 -167 238 -22 48 -52 114 -67 146 -15 33
-46 86 -69 117 -49 67 -65 97 -94 173 -11 31 -23 56 -27 56 -4 0 -23 -29 -42
-65 -19 -36 -37 -65 -40 -65 -3 0 -14 -17 -25 -37 -11 -21 -50 -89 -87 -151
-38 -63 -68 -117 -68 -122 0 -4 -7 -14 -17 -21 -9 -8 -21 -25 -27 -39 -31 -69
-114 -194 -88 -133 16 39 91 172 102 183 3 3 23 39 45 80 52 101 72 138 138
254 32 54 57 102 57 105 0 4 9 17 21 30 15 15 20 31 16 49 -3 15 -10 56 -17
92 -6 36 -13 71 -16 79 -5 15 -34 -25 -80 -109 -16 -30 -31 -57 -34 -60 -10
-9 -60 -90 -60 -95 0 -3 -33 -61 -73 -128 -112 -186 -187 -315 -213 -363 -13
-25 -40 -69 -59 -99 -19 -31 -35 -60 -35 -65 0 -5 -5 -12 -10 -15 -18 -11 0
46 29 95 15 25 30 52 34 60 4 8 16 29 27 45 11 17 23 37 27 45 4 8 76 136 160
283 85 148 157 276 160 285 4 9 16 31 29 47 12 17 25 41 29 55 4 14 13 32 21
40 21 24 56 110 51 124 -3 7 -2 60 2 119 l6 107 -29 11 c-15 7 -41 12 -57 12
-15 0 -26 3 -24 7 6 10 -26 23 -135 58 -52 17 -180 60 -285 95 -134 46 -192
62 -197 53 -5 -7 -8 -5 -8 5 0 10 -14 21 -38 27 -20 6 -136 44 -256 85 l-220
75 -57 -82 c-32 -44 -63 -86 -68 -93 -6 -7 -11 -16 -11 -22 0 -5 -7 -11 -15
-15 -17 -6 31 74 52 87 7 4 13 12 13 18 0 5 15 31 33 57 19 26 32 53 29 60 -2
6 2 12 10 12 11 1 88 99 88 113 0 2 -15 7 -33 10 -17 3 -53 14 -79 26 -49 21
-61 44 -35 70 10 10 1 12 -43 9 -48 -3 -55 -5 -52 -22 3 -17 2 -18 -12 -6 -23
18 -90 17 -226 -4 -63 -9 -178 -24 -255 -32 -77 -8 -151 -17 -165 -19 -106
-16 -148 -20 -144 -13 3 4 22 8 42 8 20 0 44 5 52 10 12 8 11 10 -7 10 -13 0
-23 5 -23 11 0 6 7 9 15 5 8 -3 25 -1 38 4 12 5 48 12 80 15 32 4 56 9 53 12
-6 6 -233 83 -245 83 -16 0 -26 -111 -11 -120 9 -6 9 -9 0 -12 -33 -11 -36
-430 -5 -689 124 -1002 707 -1909 1610 -2504 578 -380 1245 -611 1985 -687
208 -21 678 -16 899 11 1065 127 1982 584 2644 1316 406 449 699 1016 812
1572 6 30 5 31 -32 38 -21 3 -54 15 -73 26 l-35 20 35 -6 c106 -20 161 -10 85
15 -37 12 -38 14 -35 73 1 21 -3 37 -9 37 -6 0 -11 4 -11 9 0 5 25 6 55 4 63
-6 58 -13 75 127 28 230 22 543 -16 800 -33 227 -132 579 -224 795 -74 175
-241 487 -286 534 -11 12 -15 10 -24 -15 -6 -16 -14 -38 -19 -49 -5 -11 -12
-29 -14 -40 -3 -11 -14 -45 -25 -75 -10 -30 -38 -116 -62 -190 -24 -74 -49
-148 -55 -165 -7 -16 -16 -45 -20 -64 l-7 -33 -58 6 c-63 7 -72 2 -84 -49 -15
-64 -61 -175 -75 -180 -34 -13 -33 16 8 130 23 64 39 121 36 126 -3 4 -24 13
-46 19 -22 6 -42 17 -45 25 -4 8 5 47 19 87 14 40 52 150 85 243 109 313 122
352 122 367 0 9 -17 18 -44 25 -52 12 -38 36 -117 -199 -29 -87 -56 -158 -60
-158 -6 0 9 55 28 100 3 8 7 20 9 25 1 6 21 64 43 130 28 87 36 122 28 127 -8
5 -7 8 3 8 10 0 22 21 33 60 10 33 22 60 28 60 12 0 12 2 -11 -65 -11 -32 -17
-62 -13 -66 5 -4 25 -12 47 -18 34 -9 39 -8 43 9 7 25 25 31 65 19 51 -14 52
-12 22 29 -74 99 -117 142 -131 131 -10 -9 -13 -5 -13 20 0 27 -22 53 -157
189 -275 276 -510 456 -856 656 -54 31 -101 56 -106 56 -4 0 -63 -120 -131
-267z m897 -579 c-3 -3 -12 -4 -19 -1 -8 3 -5 6 6 6 11 1 17 -2 13 -5z m40
-10 c-3 -3 -12 -4 -19 -1 -8 3 -5 6 6 6 11 1 17 -2 13 -5z m40 -10 c-3 -3 -12
-4 -19 -1 -8 3 -5 6 6 6 11 1 17 -2 13 -5z m180 -50 c-3 -3 -12 -4 -19 -1 -8
3 -5 6 6 6 11 1 17 -2 13 -5z m-123 -680 c-20 -60 -40 -113 -44 -119 -4 -5
-15 -40 -24 -78 -10 -37 -22 -70 -27 -73 -12 -7 -11 13 1 37 6 10 21 54 34 96
21 67 65 198 81 242 3 8 8 11 11 8 3 -3 -11 -54 -32 -113z m-1552 -78 c24 -8
76 -24 116 -36 39 -11 72 -25 72 -30 0 -14 -9 -13 -71 9 -30 10 -70 21 -89 25
-35 6 -106 46 -83 46 7 0 32 -6 55 -14z m650 -29 c43 -13 81 -27 85 -31 4 -4
1 -5 -7 -2 -8 2 -57 14 -107 26 -51 12 -93 27 -93 32 0 11 2 10 122 -25z m382
-116 c4 -5 -3 -7 -14 -4 -23 6 -26 13 -6 13 8 0 17 -4 20 -9z m-3066 -7 c-3
-3 -46 -9 -95 -14 -48 -4 -101 -11 -118 -15 -40 -10 -26 3 22 20 36 13 203 21
191 9z m2647 -30 c66 -19 140 -41 165 -48 153 -43 240 -71 240 -77 0 -5 -12
-4 -27 1 -42 13 -411 117 -466 131 -45 11 -73 29 -45 29 7 0 67 -16 133 -36z
m839 -39 c-4 -8 -8 -15 -10 -15 -2 0 -4 7 -4 15 0 8 4 15 10 15 5 0 7 -7 4
-15z m-1934 -5 c0 -5 -2 -10 -4 -10 -3 0 -8 5 -11 10 -3 6 -1 10 4 10 6 0 11
-4 11 -10z m-498 -22 c-7 -7 -12 -8 -12 -2 0 14 12 26 19 19 2 -3 -1 -11 -7
-17z m-996 -33 c17 -43 -31 -96 -241 -271 l-130 -108 -5 30 c-8 44 7 139 31
195 27 63 105 134 168 153 65 20 170 21 177 1z m3368 -115 c-19 -58 -40 -109
-46 -115 -13 -12 -10 0 31 119 32 91 41 110 46 104 2 -2 -12 -50 -31 -108z
m191 -70 c13 -6 15 -9 5 -9 -8 0 -22 4 -30 9 -18 12 -2 12 25 0z m-248 -82
c-3 -8 -6 -5 -6 6 -1 11 2 17 5 13 3 -3 4 -12 1 -19z m-25 -91 c-11 -29 -28
-77 -37 -107 -9 -30 -20 -64 -25 -75 -5 -11 -16 -45 -25 -75 -10 -30 -22 -66
-27 -79 -11 -31 -78 -232 -114 -343 -15 -49 -31 -88 -36 -88 -18 0 -17 3 132
430 40 113 80 232 91 265 33 104 52 150 57 137 2 -7 -5 -36 -16 -65z m-179
-57 c-3 -12 -8 -19 -11 -16 -5 6 5 36 12 36 2 0 2 -9 -1 -20z m-1201 -4 c6 4
9 1 7 -5 -7 -19 -24 -14 -26 6 -2 10 0 12 3 5 3 -6 10 -9 16 -6z m-12 -80 c0
-3 -4 -8 -10 -11 -5 -3 -10 -1 -10 4 0 6 5 11 10 11 6 0 10 -2 10 -4z m-4462
-282 c22 -6 32 -44 12 -44 -5 0 -10 -5 -10 -10 0 -20 -66 -106 -78 -102 -7 2
-12 8 -12 13 0 6 4 7 10 4 5 -3 28 22 51 57 35 55 38 63 22 66 -20 4 -43 22
-27 22 5 0 19 -3 32 -6z m5008 -34 c16 0 20 -55 4 -65 -5 -3 -10 -19 -10 -34
0 -24 6 -31 43 -44 70 -27 199 -67 213 -67 7 0 16 -5 20 -12 5 -8 0 -9 -17 -4
-13 4 -55 16 -94 27 -38 11 -74 21 -80 23 -5 2 -23 6 -40 10 -16 4 -38 10 -47
13 -14 3 -18 -2 -18 -25 0 -17 -4 -32 -9 -34 -5 -1 -11 -16 -13 -32 -3 -29 -1
-30 97 -62 307 -100 328 -106 336 -92 7 10 9 10 9 -3 0 -14 84 -49 117 -49 10
0 20 21 29 63 2 10 9 28 16 40 19 36 21 1 3 -48 -10 -24 -15 -50 -12 -58 3 -7
68 -33 146 -57 77 -24 139 -46 136 -48 -4 -4 -161 40 -228 64 -71 26 -64 38
-161 -258 -50 -150 -92 -277 -94 -281 -2 -5 -8 -5 -14 1 -7 7 53 200 151 476
12 33 21 66 21 75 0 23 -109 57 -123 39 -6 -9 -7 -8 -3 5 4 12 0 17 -12 17 -9
0 -53 11 -97 24 -225 66 -329 96 -330 93 0 -1 -7 -14 -14 -29 -21 -40 -9 -111
25 -155 42 -55 94 -143 84 -143 -5 0 -11 6 -14 13 -5 10 -7 10 -12 0 -8 -18
-22 -16 -26 2 -5 24 -82 125 -93 122 -5 -2 -19 -31 -30 -65 -11 -34 -26 -67
-33 -74 -6 -6 -12 -17 -12 -22 0 -6 -11 -24 -25 -40 -20 -23 -35 -30 -72 -32
-36 -3 -51 0 -60 13 -7 9 -13 14 -13 10 0 -4 -9 -3 -19 3 -12 6 -22 6 -25 1
-4 -5 -19 3 -36 17 -23 20 -27 29 -18 39 6 8 17 12 24 9 15 -6 37 27 26 38 -3
4 0 11 8 16 8 5 15 27 16 52 2 58 2 58 20 58 19 0 14 22 -7 28 -11 3 -11 2 1
-7 9 -7 10 -11 3 -11 -13 0 -28 19 -20 26 3 3 14 6 25 7 24 1 18 27 -7 27 -14
1 -15 2 0 13 18 14 32 57 40 122 3 21 49 32 49 12 0 -7 4 -7 12 1 10 10 10 15
0 21 -10 6 -8 10 8 14 15 4 21 11 17 21 -6 14 39 53 56 48 5 -1 22 12 38 30
16 18 29 29 29 24 0 -6 10 3 23 20 12 16 28 30 36 32 18 4 40 32 37 47 -2 5
-1 7 1 3 3 -5 11 -8 19 -8z m-5169 -76 c-3 -3 -12 -4 -19 -1 -8 3 -5 6 6 6 11
1 17 -2 13 -5z m173 -59 c19 -7 28 -13 20 -13 -8 0 -31 6 -50 13 -19 7 -28 13
-20 13 8 0 31 -6 50 -13z m-101 -27 c-6 -12 -16 -27 -21 -32 -17 -22 -68 -92
-93 -128 -50 -75 -32 -32 28 67 7 11 20 26 30 33 9 7 17 18 17 23 0 13 33 58
43 59 4 0 2 -10 -4 -22z m5563 -30 c-7 -7 -12 -8 -12 -2 0 14 12 26 19 19 2
-3 -1 -11 -7 -17z m-4117 -38 c-3 -5 -10 -10 -16 -10 -5 0 -9 5 -9 10 0 6 7
10 16 10 8 0 12 -4 9 -10z m3962 -6 c-3 -3 -12 -4 -19 -1 -8 3 -5 6 6 6 11 1
17 -2 13 -5z m-3970 -30 c-3 -3 -12 -4 -19 -1 -8 3 -5 6 6 6 11 1 17 -2 13 -5z
m3241 -314 c-1 -16 -4 -30 -8 -30 -8 0 -10 29 -4 48 6 22 13 13 12 -18z m1287
10 c3 -6 -1 -7 -9 -4 -18 7 -21 14 -7 14 6 0 13 -4 16 -10z m105 -30 c8 -5 11
-10 5 -10 -5 0 -17 5 -25 10 -8 5 -10 10 -5 10 6 0 17 -5 25 -10z m-1478 -62
c-7 -7 -12 -8 -12 -2 0 14 12 26 19 19 2 -3 -1 -11 -7 -17z m559 5 c-8 11 -9
17 -2 17 12 0 27 -48 17 -57 -7 -7 -56 36 -56 49 0 5 12 1 28 -9 25 -17 26
-17 13 0z m22 -65 c7 -7 18 -25 26 -40 8 -16 18 -28 23 -28 4 0 8 -4 8 -10 0
-26 -23 -2 -73 77 -10 17 1 17 16 1z m-1343 -28 c0 -23 -36 -36 -55 -20 -27
22 -17 33 38 37 10 1 17 -5 17 -17z m3260 0 c0 -5 -5 -10 -11 -10 -5 0 -7 5
-4 10 3 6 8 10 11 10 2 0 4 -4 4 -10z m-3785 -20 c3 -5 -1 -10 -9 -10 -20 0
-20 -9 1 -32 19 -21 6 -24 -20 -3 -13 9 -17 20 -12 34 7 22 29 28 40 11z
m2065 -6 c0 -8 -5 -12 -10 -9 -6 4 -8 11 -5 16 9 14 15 11 15 -7z m-113 -54
c-12 -18 -15 -18 -20 -5 -4 8 -2 15 4 15 6 0 7 9 3 22 -6 21 -6 21 10 5 15
-15 16 -19 3 -37z m90 -2 c-3 -7 -5 -2 -5 12 0 14 2 19 5 13 2 -7 2 -19 0 -25z
m-1127 -18 c0 -5 -7 -10 -16 -10 -8 0 -12 5 -9 10 3 6 10 10 16 10 5 0 9 -4 9
-10z m-3493 -187 c-2 -37 -3 -9 -3 62 0 72 1 102 3 68 2 -34 2 -93 0 -130z
m3583 148 c0 -5 -7 -12 -16 -15 -24 -9 -28 -7 -14 9 14 17 30 20 30 6z m-183
-7 c-3 -3 -12 -4 -19 -1 -8 3 -5 6 6 6 11 1 17 -2 13 -5z m1207 -42 c-13 -19
-26 -20 -33 -1 -2 8 2 10 13 6 14 -6 16 -3 11 16 -6 18 -5 20 6 9 10 -9 11
-17 3 -30z m-834 -26 c0 -3 -4 -8 -10 -11 -5 -3 -10 -1 -10 4 0 6 5 11 10 11
6 0 10 -2 10 -4z m872 -45 c2 -17 1 -28 -4 -25 -8 5 -12 54 -4 54 2 0 6 -13 8
-29z m-758 -15 c-6 -16 -44 -18 -44 -3 0 5 7 7 15 3 8 -3 15 -1 15 4 0 6 4 10
10 10 5 0 7 -6 4 -14z m-2891 -27 c3 -13 1 -19 -6 -16 -15 5 -22 37 -9 37 5 0
12 -9 15 -21z m3734 -65 c-3 -3 -12 -4 -19 -1 -8 3 -5 6 6 6 11 1 17 -2 13 -5z
m-4730 -317 c-2 -23 -3 -1 -3 48 0 50 1 68 3 42 2 -26 2 -67 0 -90z m5839 75
c-8 -9 -18 -13 -22 -10 -8 9 19 37 29 31 5 -3 2 -12 -7 -21z m-1811 -157 l30
-14 -30 6 c-16 3 -37 9 -45 14 -27 15 11 10 45 -6z m-2185 -15 c0 -5 15 -11
33 -11 18 -1 24 -3 14 -6 -24 -6 -67 5 -67 17 0 6 5 10 10 10 6 0 10 -4 10
-10z m210 -28 c-7 -3 -16 0 -18 7 -2 6 -9 8 -14 5 -7 -4 -8 -2 -4 4 5 9 13 9
29 0 17 -8 18 -13 7 -16z m57 -8 c-3 -3 -12 -4 -19 -1 -8 3 -5 6 6 6 11 1 17
-2 13 -5z m-2 -24 c3 -5 17 -10 31 -10 14 0 24 -6 24 -14 0 -14 -21 -26 -46
-26 -14 0 -64 43 -64 55 0 9 49 5 55 -5z m54 -81 c39 -14 39 -20 -2 -40 -25
-12 -33 -24 -39 -55 -4 -21 -12 -52 -17 -69 -9 -24 -10 -15 -5 39 3 38 9 79
14 90 5 14 2 25 -9 33 -14 11 -14 12 5 13 12 0 35 -5 53 -11z m-2351 -124 c-6
-6 -58 8 -58 16 0 4 14 3 31 -3 16 -6 29 -12 27 -13z m189 -77 c-3 -8 -6 -5
-6 6 -1 11 2 17 5 13 3 -3 4 -12 1 -19z m1378 -46 c-5 -5 -63 27 -71 39 -3 6
12 0 34 -12 22 -13 39 -25 37 -27z m-1045 -14 c-13 -13 -19 -16 -15 -8 14 25
28 41 32 36 3 -3 -5 -15 -17 -28z m-113 -14 c-3 -3 -12 -4 -19 -1 -8 3 -5 6 6
6 11 1 17 -2 13 -5z m1270 -10 c-3 -3 -12 -4 -19 -1 -8 3 -5 6 6 6 11 1 17 -2
13 -5z m-1177 -14 c0 -13 -11 -13 -30 0 -12 8 -11 10 8 10 12 0 22 -4 22 -10z
m1217 4 c-3 -3 -12 -4 -19 -1 -8 3 -5 6 6 6 11 1 17 -2 13 -5z m-1177 -24 c8
-5 11 -10 5 -10 -5 0 -17 5 -25 10 -8 5 -10 10 -5 10 6 0 17 -5 25 -10z m1547
-26 c-3 -3 -12 -4 -19 -1 -8 3 -5 6 6 6 11 1 17 -2 13 -5z m80 -10 c-3 -3 -12
-4 -19 -1 -8 3 -5 6 6 6 11 1 17 -2 13 -5z m-1942 -81 c-19 -32 -35 -64 -35
-71 0 -7 -4 -11 -9 -8 -13 8 -1 47 21 70 10 11 18 24 18 28 0 11 23 37 32 38
4 0 -8 -26 -27 -57z m562 31 c-3 -3 -12 -4 -19 -1 -8 3 -5 6 6 6 11 1 17 -2
13 -5z m1120 -60 c-3 -3 -12 -4 -19 -1 -8 3 -5 6 6 6 11 1 17 -2 13 -5z
m-1784 -146 c-27 -46 -52 -91 -56 -100 -3 -10 -12 -18 -18 -18 -7 0 -5 8 5 23
9 12 27 45 41 72 24 46 36 69 59 103 4 7 10 11 13 8 3 -2 -17 -42 -44 -88z
m2053 -146 c-6 -1 -19 -19 -28 -40 -10 -22 -15 -27 -12 -12 4 14 13 40 22 59
14 29 17 31 22 15 4 -11 3 -20 -4 -22z m-2146 -18 c-18 -21 -24 -10 -9 18 8
14 14 18 17 10 2 -7 -2 -19 -8 -28z m217 20 c-3 -3 -12 -4 -19 -1 -8 3 -5 6 6
6 11 1 17 -2 13 -5z m1076 -1 c-13 -2 -33 -2 -45 0 -13 2 -3 4 22 4 25 0 35
-2 23 -4z m460 0 c-13 -2 -35 -2 -50 0 -16 2 -5 4 22 4 28 0 40 -2 28 -4z
m-1799 -93 c-9 -16 -20 -32 -26 -36 -10 -7 7 31 25 54 16 20 16 14 1 -18z
m-43 -73 c-10 -9 -11 -8 -5 6 3 10 9 15 12 12 3 -3 0 -11 -7 -18z"/>
<path d="M7380 4441 c0 -6 4 -12 8 -15 5 -3 9 1 9 9 0 8 -4 15 -9 15 -4 0 -8
-4 -8 -9z"/>
<path d="M7680 4125 c0 -8 4 -15 10 -15 5 0 7 7 4 15 -4 8 -8 15 -10 15 -2 0
-4 -7 -4 -15z"/>
<path d="M5698 7463 c7 -3 16 -2 19 1 4 3 -2 6 -13 5 -11 0 -14 -3 -6 -6z"/>
<path d="M4665 7450 c-3 -5 -1 -10 4 -10 6 0 11 5 11 10 0 6 -2 10 -4 10 -3 0
-8 -4 -11 -10z"/>
<path d="M4630 7428 c0 -9 -6 -19 -12 -21 -10 -4 -10 -6 0 -6 14 -1 28 26 18
36 -3 4 -6 -1 -6 -9z"/>
<path d="M5843 7423 c15 -2 39 -2 55 0 15 2 2 4 -28 4 -30 0 -43 -2 -27 -4z"/>
<path d="M5970 7420 c-8 -5 -10 -10 -5 -10 6 0 17 5 25 10 8 5 11 10 5 10 -5
0 -17 -5 -25 -10z"/>
<path d="M5068 7413 c7 -3 16 -2 19 1 4 3 -2 6 -13 5 -11 0 -14 -3 -6 -6z"/>
<path d="M4530 7391 c0 -25 6 -27 13 -6 4 8 2 17 -3 20 -6 4 -10 -3 -10 -14z"/>
<path d="M5898 7403 c7 -3 16 -2 19 1 4 3 -2 6 -13 5 -11 0 -14 -3 -6 -6z"/>
<path d="M5997 7393 c5 -12 3 -14 -8 -8 -8 4 -11 4 -7 0 8 -8 58 -17 58 -10 0
1 -11 10 -25 19 -23 15 -24 15 -18 -1z"/>
<path d="M5948 7393 c7 -3 16 -2 19 1 4 3 -2 6 -13 5 -11 0 -14 -3 -6 -6z"/>
<path d="M4507 7366 c-5 -15 -6 -31 -3 -34 8 -8 18 25 14 45 -3 13 -6 10 -11
-11z"/>
<path d="M5825 7370 c3 -5 8 -10 11 -10 2 0 4 5 4 10 0 6 -5 10 -11 10 -5 0
-7 -4 -4 -10z"/>
<path d="M5920 7352 c0 -12 24 -22 53 -22 17 0 19 2 7 9 -8 6 -18 7 -22 4 -5
-2 -15 1 -23 7 -9 7 -15 8 -15 2z"/>
<path d="M4551 7314 c0 -11 3 -14 6 -6 3 7 2 16 -1 19 -3 4 -6 -2 -5 -13z"/>
<path d="M4700 7309 c0 -5 5 -7 10 -4 6 3 10 8 10 11 0 2 -4 4 -10 4 -5 0 -10
-5 -10 -11z"/>
<path d="M6106 7286 c3 -14 -1 -27 -10 -35 -9 -8 -16 -21 -17 -30 0 -12 -2
-12 -8 3 -6 17 -8 17 -14 3 -8 -21 10 -34 63 -46 44 -10 60 -4 60 24 0 6 -4 4
-9 -4 -7 -11 -13 -10 -35 5 -25 19 -35 44 -17 44 20 0 41 -13 35 -21 -3 -5 -1
-9 5 -9 5 0 12 6 14 13 4 10 6 10 6 0 2 -21 17 -14 29 12 15 32 15 38 2 30 -5
-3 -10 -2 -10 3 0 5 -11 8 -24 7 -13 -2 -36 3 -50 10 -25 13 -26 13 -20 -9z"/>
<path d="M4515 7263 l-18 -28 27 24 c28 26 31 31 17 31 -5 0 -17 -12 -26 -27z"/>
<path d="M4746 7273 c-6 -14 -5 -15 5 -6 7 7 10 15 7 18 -3 3 -9 -2 -12 -12z"/>
<path d="M5820 7276 c0 -9 30 -14 35 -6 4 6 -3 10 -14 10 -12 0 -21 -2 -21 -4z"/>
<path d="M6010 7269 c0 -5 5 -7 10 -4 6 3 10 8 10 11 0 2 -4 4 -10 4 -5 0 -10
-5 -10 -11z"/>
<path d="M5893 7263 c9 -2 25 -2 35 0 9 3 1 5 -18 5 -19 0 -27 -2 -17 -5z"/>
<path d="M6252 7228 c-28 -47 -23 -81 14 -90 16 -3 79 -21 139 -38 61 -17 135
-38 165 -46 30 -9 78 -21 105 -29 86 -24 307 -86 375 -105 158 -46 287 -80
305 -80 15 0 26 15 43 56 13 31 22 58 20 59 -2 2 -57 17 -123 35 -66 17 -145
38 -175 46 -200 55 -286 78 -370 100 -94 25 -166 44 -185 48 -25 6 -104 28
-150 41 -27 8 -62 17 -78 19 -15 3 -36 7 -46 11 -14 4 -24 -3 -39 -27z"/>
<path d="M4510 7195 c0 -8 4 -15 10 -15 5 0 7 7 4 15 -4 8 -8 15 -10 15 -2 0
-4 -7 -4 -15z"/>
<path d="M4596 7163 c-6 -14 -5 -15 5 -6 7 7 10 15 7 18 -3 3 -9 -2 -12 -12z"/>
<path d="M5942 7154 c-7 -14 -8 -23 -2 -19 15 9 32 45 22 45 -5 0 -14 -12 -20
-26z"/>
<path d="M6217 7173 c-4 -3 -7 -11 -7 -17 0 -6 5 -5 12 2 6 6 9 14 7 17 -3 3
-9 2 -12 -2z"/>
<path d="M4511 7154 c0 -11 3 -14 6 -6 3 7 2 16 -1 19 -3 4 -6 -2 -5 -13z"/>
<path d="M4408 7113 c-19 -27 -41 -59 -48 -72 -7 -14 -23 -36 -36 -50 -13 -14
-24 -31 -24 -38 0 -7 -4 -13 -10 -13 -20 0 -9 -18 18 -29 16 -7 33 -25 39 -41
8 -21 18 -30 34 -30 12 0 19 3 16 6 -3 4 0 16 8 28 19 26 19 32 1 39 -8 3 -20
-2 -28 -11 -12 -16 -11 -16 7 -2 19 14 19 14 6 -2 -19 -25 -31 -13 -31 31 0
26 7 44 21 57 17 15 20 26 15 57 -5 28 -3 37 5 31 9 -5 10 -2 6 9 -4 11 -2 14
9 10 10 -4 14 -1 13 8 -2 8 2 24 9 37 20 35 9 26 -30 -25z"/>
<path d="M6028 7153 c7 -3 16 -2 19 1 4 3 -2 6 -13 5 -11 0 -14 -3 -6 -6z"/>
<path d="M4560 7141 c0 -6 6 -11 13 -11 8 0 7 -3 -3 -10 -8 -5 -12 -12 -9 -15
4 -3 11 1 18 8 9 11 8 17 -4 27 -10 9 -15 9 -15 1z"/>
<path d="M6050 7141 c-8 -6 -17 -8 -21 -5 -4 2 -10 0 -14 -6 -4 -6 -11 -7 -17
-4 -7 4 -8 2 -4 -4 4 -7 13 -12 20 -12 14 0 76 29 76 36 0 7 -25 4 -40 -5z"/>
<path d="M6120 7124 c0 -8 5 -12 10 -9 6 3 10 10 10 16 0 5 -4 9 -10 9 -5 0
-10 -7 -10 -16z"/>
<path d="M6187 7114 c-11 -11 -8 -26 3 -19 15 9 12 -2 -6 -30 -9 -14 -21 -25
-28 -25 -6 0 -21 -18 -34 -40 -18 -33 -20 -40 -7 -40 8 0 15 -4 15 -10 0 -5 7
-10 15 -10 8 0 15 -4 15 -10 0 -5 11 -10 25 -10 18 0 25 -5 25 -19 0 -11 6
-22 13 -25 10 -5 10 -7 0 -12 -25 -11 -15 -51 17 -64 33 -14 41 -49 15 -70 -8
-7 -15 -21 -15 -31 0 -11 7 -19 15 -19 8 0 15 5 15 10 0 17 37 11 44 -7 4 -9
9 -64 12 -122 2 -58 7 -121 10 -138 3 -20 1 -33 -6 -33 -5 0 -10 -7 -10 -15 0
-12 4 -11 20 5 19 19 22 19 56 5 20 -8 37 -15 39 -15 3 0 62 94 79 128 29 56
98 36 76 -23 -6 -15 -8 -36 -5 -45 3 -10 0 -22 -6 -26 -9 -5 -10 -2 -6 9 3 10
2 17 -3 17 -10 0 -14 -13 -11 -42 2 -19 61 -84 74 -80 4 1 7 -4 7 -11 0 -21
68 -69 89 -62 14 4 21 0 26 -15 4 -12 44 -48 88 -81 45 -33 89 -66 98 -74 45
-36 57 -30 90 42 17 37 52 111 76 163 25 52 56 120 70 150 14 30 42 91 62 135
21 44 56 119 79 167 45 96 47 90 -33 104 -22 4 -48 11 -58 16 -10 5 -26 11
-35 13 -22 4 -335 87 -477 126 -60 16 -143 38 -182 49 -183 50 -226 59 -256
54 -25 -3 -28 -2 -12 5 16 8 12 10 -22 10 -23 1 -43 6 -45 12 -2 5 -7 7 -11 3z
m250 -720 c-3 -3 -12 -4 -19 -1 -8 3 -5 6 6 6 11 1 17 -2 13 -5z"/>
<path d="M5907 7091 c-4 -17 -3 -21 5 -13 5 5 8 16 6 23 -3 8 -7 3 -11 -10z"/>
<path d="M3126 7057 c-43 -38 -47 -44 -30 -51 11 -4 20 -3 22 4 2 6 9 16 16
23 13 13 48 67 44 67 -2 0 -25 -20 -52 -43z"/>
<path d="M5975 7091 c-3 -5 -1 -12 5 -16 5 -3 10 1 10 9 0 18 -6 21 -15 7z"/>
<path d="M6110 7092 c0 -6 -7 -9 -15 -6 -12 5 -15 -2 -15 -27 l0 -34 21 34
c11 18 18 36 15 39 -4 3 -6 0 -6 -6z"/>
<path d="M4531 7074 c0 -11 3 -14 6 -6 3 7 2 16 -1 19 -3 4 -6 -2 -5 -13z"/>
<path d="M5941 7035 c-11 -19 -17 -35 -12 -35 5 0 14 14 21 31 10 22 15 27 21
17 6 -9 9 -9 9 -1 0 27 -19 21 -39 -12z"/>
<path d="M5885 7049 c-4 -6 -5 -12 -2 -15 2 -3 7 2 10 11 7 17 1 20 -8 4z"/>
<path d="M4580 7040 c0 -5 5 -10 10 -10 6 0 10 5 10 10 0 6 -4 10 -10 10 -5 0
-10 -4 -10 -10z"/>
<path d="M3445 7017 c-32 -38 -55 -71 -55 -78 0 -7 62 -39 76 -39 2 0 16 14
32 31 27 29 31 30 68 20 31 -9 41 -8 53 4 19 19 9 28 -49 44 -25 8 -58 17 -74
22 -36 11 -39 11 -51 -4z"/>
<path d="M5855 6999 c-4 -6 -5 -12 -2 -15 2 -3 7 2 10 11 7 17 1 20 -8 4z"/>
<path d="M2914 6872 c-179 -165 -385 -403 -515 -594 -36 -52 -38 -58 -22 -68
16 -10 15 -11 -4 -7 -19 4 -29 -5 -58 -51 -19 -31 -35 -60 -35 -64 0 -3 10
-10 23 -13 12 -4 59 -18 104 -32 78 -24 113 -25 113 -5 0 5 -18 16 -40 25 -44
17 -50 35 -20 62 11 10 20 26 20 35 0 10 6 20 13 23 7 3 41 43 76 88 34 46 82
111 107 144 127 168 319 428 381 517 26 38 29 47 17 52 -9 3 -19 6 -24 6 -4 0
-66 -53 -136 -118z m-445 -688 c12 -11 -8 -10 -39 2 l-35 14 35 -6 c19 -4 37
-8 39 -10z"/>
<path d="M3672 6954 c-13 -14 -10 -16 52 -50 28 -15 30 -30 8 -52 -19 -19 -18
-19 37 -37 31 -10 85 -26 120 -36 62 -18 63 -18 68 1 3 11 9 17 14 14 5 -3 9
0 9 5 0 6 8 19 18 29 25 25 82 19 75 -8 -3 -12 2 -20 16 -25 12 -3 21 -11 21
-16 0 -13 -17 -11 -24 4 -3 6 -3 1 0 -12 4 -14 1 -27 -6 -31 -7 -4 -8 -10 -4
-13 5 -2 26 20 46 49 22 33 32 54 24 54 -7 0 -62 16 -122 35 -165 53 -166 53
-209 61 -22 4 -60 15 -85 24 -38 15 -47 16 -58 4z"/>
<path d="M7421 6885 c-13 -30 -21 -58 -18 -61 6 -7 119 -36 121 -32 1 2 14 29
29 61 l27 57 -23 9 c-13 5 -44 12 -68 16 l-44 6 -24 -56z"/>
<path d="M6000 6905 c0 -8 2 -15 4 -15 2 0 6 7 10 15 3 8 1 15 -4 15 -6 0 -10
-7 -10 -15z"/>
<path d="M4260 6901 c0 -5 6 -12 13 -15 6 -3 4 -4 -7 -3 -10 1 -25 -8 -33 -20
-14 -20 -13 -21 29 -28 24 -4 55 -13 70 -20 16 -8 30 -9 34 -4 10 16 -5 26
-33 23 -16 -2 -20 -1 -10 2 23 7 21 26 -6 52 -24 22 -57 30 -57 13z"/>
<path d="M3345 6880 c-8 -9 -12 -19 -9 -23 3 -3 -4 -10 -15 -17 -12 -6 -47
-46 -78 -88 -93 -126 -333 -450 -410 -552 -76 -101 -76 -102 -10 -120 20 -6
37 -15 37 -20 0 -13 3 -13 -60 6 l-53 16 -32 -37 c-31 -38 -31 -38 -87 -31
-94 12 -78 -10 34 -46 68 -21 95 -33 78 -35 -14 -2 -62 10 -108 25 l-83 29
-47 -61 c-27 -34 -70 -91 -97 -128 -36 -50 -55 -68 -72 -68 -13 0 -23 6 -23
13 0 6 41 66 90 132 50 65 87 122 82 126 -4 4 -53 22 -109 40 -122 40 -100 56
-206 -151 -123 -239 -233 -539 -286 -783 l-19 -89 33 -14 c19 -8 39 -14 45
-14 12 0 316 -98 470 -151 93 -32 128 -34 269 -16 l94 12 46 66 c25 37 86 122
134 190 291 409 412 587 406 593 -2 2 -14 6 -26 10 -17 6 -27 -2 -53 -38 -35
-48 -51 -59 -75 -50 -21 9 -19 20 16 70 l30 44 -28 10 c-39 14 -58 26 -58 36
0 19 -17 33 -46 39 -46 10 -112 42 -102 48 5 3 43 -5 83 -17 41 -13 79 -22 85
-20 12 5 79 104 73 108 -1 2 -34 11 -71 21 -64 17 -86 29 -74 41 3 3 40 -6 83
-19 l78 -25 21 28 c11 16 54 79 95 139 96 141 187 273 200 288 5 7 10 15 10
18 0 8 52 88 64 100 6 6 20 26 30 45 37 69 55 81 113 79 43 -2 57 1 73 19 11
12 20 28 20 37 0 9 5 13 10 10 6 -3 10 -4 10 -1 0 2 3 12 6 21 4 9 3 15 -2 13
-5 -1 -47 8 -92 21 -84 22 -120 22 -106 -1 6 -9 9 -9 12 0 2 7 7 12 12 12 4 0
-5 -24 -21 -53 -18 -35 -41 -60 -63 -72 -19 -11 -32 -23 -29 -28 7 -11 -27
-47 -54 -58 -17 -6 -23 -17 -23 -41 -1 -27 -2 -30 -11 -15 -17 29 -40 19 -94
-40 l-51 -57 -21 21 c-12 12 -23 29 -25 39 -1 9 -8 19 -15 21 -9 3 -13 -23
-16 -99 l-3 -103 -2 111 c-1 62 -7 122 -14 137 -14 28 -28 36 -28 15 0 -9 -3
-9 -9 1 -6 9 -6 22 0 32 5 10 9 25 9 34 0 9 14 36 30 60 17 24 30 49 30 55 0
6 5 8 11 5 15 -10 48 23 42 44 -2 10 7 31 21 48 14 17 26 35 26 40 0 5 -18 14
-40 19 -33 9 -42 8 -55 -6z"/>
<path d="M6050 6873 c-8 -15 -16 -31 -18 -35 -2 -5 2 -8 7 -8 6 0 11 9 11 19
0 32 20 35 21 4 1 -23 2 -24 6 -6 2 12 0 29 -4 38 -8 13 -12 11 -23 -12z"/>
<path d="M5966 6843 c-6 -14 -5 -15 5 -6 7 7 10 15 7 18 -3 3 -9 -2 -12 -12z"/>
<path d="M6160 6830 c0 -5 9 -10 20 -10 11 0 20 5 20 10 0 6 -9 10 -20 10 -11
0 -20 -4 -20 -10z"/>
<path d="M4190 6795 c0 -7 -6 -18 -13 -22 -22 -14 -48 -61 -37 -68 6 -3 10 -1
10 4 0 6 7 11 15 11 8 0 14 -5 13 -11 -2 -7 18 -17 44 -24 45 -12 46 -12 68
17 12 16 19 36 16 43 -3 8 -1 17 4 20 4 3 11 -1 13 -7 3 -8 6 -5 6 5 1 16 -6
18 -51 14 -29 -2 -41 -2 -25 0 36 6 34 19 -4 27 -47 9 -59 7 -59 -9z"/>
<path d="M4410 6800 c-12 -8 -10 -10 8 -10 13 0 20 4 17 10 -7 12 -6 12 -25 0z"/>
<path d="M6185 6790 c4 -6 11 -8 16 -5 14 9 11 15 -7 15 -8 0 -12 -5 -9 -10z"/>
<path d="M7320 6658 c-35 -79 -113 -250 -173 -382 -60 -131 -105 -242 -100
-246 15 -15 106 -41 113 -33 4 4 11 18 15 31 5 18 1 25 -24 40 -17 9 -31 20
-31 24 0 3 22 56 50 116 27 60 52 122 56 136 3 14 10 26 14 26 4 0 18 24 30
53 13 28 44 97 70 152 25 55 52 115 59 133 14 33 34 43 80 39 48 -4 30 21 -27
37 -32 9 -61 16 -63 16 -3 0 -34 -64 -69 -142z"/>
<path d="M4055 6770 c-3 -5 -1 -10 4 -10 6 0 11 5 11 10 0 6 -2 10 -4 10 -3 0
-8 -4 -11 -10z"/>
<path d="M5986 6765 c-9 -26 -7 -32 5 -12 6 10 9 21 6 23 -2 3 -7 -2 -11 -11z"/>
<path d="M6160 6760 c0 -19 3 -21 12 -12 9 9 9 15 0 24 -9 9 -12 7 -12 -12z"/>
<path d="M4363 6727 c-25 -36 -28 -47 -14 -47 5 0 12 10 14 23 l4 22 2 -22 c2
-40 18 -25 18 17 0 22 0 40 -1 40 0 0 -11 -15 -23 -33z"/>
<path d="M4400 6752 c0 -15 39 -22 47 -9 3 7 3 9 -2 5 -4 -4 -16 -3 -26 3 -11
5 -19 6 -19 1z"/>
<path d="M4035 6740 c3 -5 8 -10 11 -10 2 0 4 5 4 10 0 6 -5 10 -11 10 -5 0
-7 -4 -4 -10z"/>
<path d="M4000 6700 c0 -5 5 -10 11 -10 5 0 7 5 4 10 -3 6 -8 10 -11 10 -2 0
-4 -4 -4 -10z"/>
<path d="M4557 6696 c-4 -10 1 -12 14 -9 23 6 24 9 5 16 -8 3 -17 0 -19 -7z"/>
<path d="M4064 6617 c-50 -75 -59 -97 -39 -97 9 0 15 9 15 22 0 17 3 19 12 10
31 -31 -176 -320 -220 -306 -14 5 -14 4 -3 -4 12 -9 13 -13 1 -27 -7 -9 -19
-14 -27 -11 -8 3 -11 1 -8 -5 4 -5 -1 -22 -10 -36 -14 -20 -19 -23 -26 -12 -5
8 -9 9 -9 3 0 -6 -20 -37 -45 -70 -24 -32 -45 -64 -45 -71 0 -6 -3 -13 -7 -15
-11 -4 -67 -78 -82 -107 -15 -28 -10 -34 53 -55 45 -15 51 -15 67 0 10 9 17
29 17 46 -1 19 5 34 15 40 10 5 17 13 17 19 0 8 35 64 50 79 3 3 13 21 22 40
24 49 50 90 70 111 9 10 24 33 34 51 24 48 44 68 68 68 15 1 39 25 79 81 31
44 57 84 57 89 0 6 5 10 10 10 6 0 10 5 10 10 0 6 25 44 55 85 55 74 57 86 14
84 -30 -2 -52 3 -60 14 -3 5 -13 1 -22 -7 -8 -9 -22 -16 -29 -16 -8 0 -7 4 5
11 9 5 17 14 17 19 0 23 -18 6 -56 -53z"/>
<path d="M4314 6669 c-3 -5 1 -9 10 -9 8 0 16 -5 18 -12 4 -12 28 -3 28 11 0
12 -49 20 -56 10z"/>
<path d="M4012 6640 c-18 -29 -15 -38 4 -12 9 13 14 25 12 27 -2 2 -9 -5 -16
-15z"/>
<path d="M4450 6630 c-12 -8 -10 -10 8 -10 13 0 20 4 17 10 -7 12 -6 12 -25 0z"/>
<path d="M4266 6590 c-7 -17 -15 -27 -19 -23 -4 3 -7 -1 -7 -9 0 -9 -6 -21
-14 -27 -8 -7 -39 -49 -70 -94 -30 -45 -69 -101 -85 -124 -17 -24 -25 -43 -19
-43 13 0 33 24 54 68 16 32 28 37 58 26 16 -6 23 -44 9 -44 -5 0 -15 -13 -24
-29 -19 -33 -10 -51 26 -51 12 0 32 -12 46 -27 13 -14 18 -23 12 -19 -17 9
-17 -9 -1 -34 10 -16 10 -24 0 -40 -6 -11 -12 -33 -12 -50 0 -27 -3 -30 -30
-30 -16 0 -30 -4 -30 -10 0 -5 7 -10 15 -10 8 0 15 -4 15 -10 0 -5 -7 -10 -15
-10 -8 0 -43 -27 -78 -60 -34 -33 -70 -60 -79 -60 -10 0 -18 -7 -18 -15 0 -9
-7 -18 -15 -21 -8 -3 -17 -14 -20 -25 -8 -24 -66 -26 -85 -4 -19 23 -60 19
-60 -5 0 -13 -7 -20 -19 -20 -23 0 -40 22 -23 28 19 6 14 18 -13 30 -21 10
-26 9 -35 -8 -15 -27 -13 -30 20 -41 29 -11 41 -29 18 -29 -6 0 -9 -2 -6 -5 3
-3 17 -1 31 6 20 9 36 7 83 -9 33 -11 113 -37 179 -57 66 -20 179 -55 250 -77
72 -22 136 -42 143 -44 8 -2 19 2 25 9 33 35 94 137 82 137 -3 0 4 18 16 41
15 30 21 62 22 118 l2 76 -42 3 c-23 2 -47 10 -53 18 -7 7 -20 14 -29 14 -9 0
-25 16 -35 35 -11 19 -24 35 -31 35 -21 0 -49 120 -33 145 4 6 9 30 13 55 4
24 10 51 15 60 4 8 11 49 15 90 12 130 11 145 -5 145 -10 0 -17 -14 -20 -42
-4 -35 -8 -41 -20 -33 -10 6 -11 10 -2 10 6 0 12 11 12 24 0 13 -6 26 -12 29
-20 7 -4 17 31 20 48 3 37 13 -36 31 -86 21 -82 21 -97 -14z m44 9 c0 -5 -4
-7 -10 -4 -5 3 -10 1 -10 -6 0 -7 -3 -10 -6 -6 -8 7 4 27 17 27 5 0 9 -5 9
-11z m83 -16 c-7 -2 -21 -2 -30 0 -10 3 -4 5 12 5 17 0 24 -2 18 -5z"/>
<path d="M4548 6593 c7 -3 16 -2 19 1 4 3 -2 6 -13 5 -11 0 -14 -3 -6 -6z"/>
<path d="M4190 6151 c-12 -24 -13 -31 -1 -31 5 0 11 11 13 25 6 30 2 32 -12 6z"/>
<path d="M3501 5790 c-17 -28 -31 -54 -31 -59 0 -8 91 -41 114 -41 9 0 76 90
76 103 0 2 -26 12 -57 22 -32 10 -61 19 -65 21 -3 2 -20 -19 -37 -46z"/>
<path d="M3413 5681 c-18 -11 -40 -33 -50 -48 -10 -15 -20 -30 -23 -33 -17
-14 -520 -744 -520 -754 0 -2 17 -2 38 0 165 17 149 11 190 67 21 29 63 88 94
132 85 124 360 515 396 564 18 24 32 48 32 52 0 7 -30 17 -100 34 -16 3 -37
-2 -57 -14z"/>
<path d="M6990 5325 c-11 -14 -10 -14 12 -6 14 5 29 7 34 3 4 -4 4 -1 0 6 -10
17 -31 15 -46 -3z"/>
<path d="M1854 4976 c-2 -11 -6 -41 -7 -64 l-2 -44 165 -55 c152 -50 170 -54
230 -49 66 6 175 27 183 36 3 3 -123 48 -279 101 -274 93 -284 96 -290 75z"/>
<path d="M3390 4864 c-47 -7 -143 -18 -214 -24 -151 -14 -170 -20 -190 -57 -8
-15 -28 -46 -45 -67 -24 -30 -29 -42 -19 -47 16 -9 272 -92 548 -178 107 -34
234 -74 283 -89 65 -22 87 -26 87 -15 0 7 -3 13 -8 13 -4 0 -16 29 -26 65 -11
39 -23 62 -29 58 -6 -4 -8 0 -4 11 4 9 -4 42 -17 74 -13 31 -34 87 -47 124
l-24 67 -55 7 c-34 4 -70 17 -95 33 -22 15 -44 29 -50 32 -5 3 -48 0 -95 -7z
m311 -154 c15 0 10 -17 -6 -24 -12 -4 -15 2 -14 27 1 18 3 24 6 15 2 -10 9
-18 14 -18z"/>
<path d="M2958 4815 c-1 -2 -43 -8 -92 -14 -68 -8 -95 -16 -113 -33 -13 -12
-23 -26 -23 -32 0 -6 30 -20 68 -30 37 -11 72 -23 78 -28 7 -5 21 7 40 34 16
24 31 45 34 48 32 32 40 48 26 53 -8 3 -16 4 -18 2z"/>
<path d="M2048 4723 c6 -2 18 -2 25 0 6 3 1 5 -13 5 -14 0 -19 -2 -12 -5z"/>
<path d="M2879 4628 c-6 -13 -23 -36 -38 -51 -25 -28 -26 -29 -7 -43 11 -8 29
-14 41 -14 12 0 25 -3 29 -7 3 -4 13 -8 21 -9 15 -2 228 -71 260 -84 48 -20
127 -40 135 -35 4 3 10 1 12 -3 3 -8 238 -86 348 -116 30 -8 75 -23 100 -32
86 -31 99 -34 93 -17 -5 12 -1 14 18 8 32 -10 36 -15 20 -24 -9 -6 -5 -10 13
-13 14 -3 24 -2 22 1 -6 9 17 26 33 26 8 0 16 6 19 14 3 10 -1 12 -17 8 -11
-3 -23 -1 -26 3 -3 4 -14 6 -24 3 -10 -3 -22 1 -26 8 -6 9 3 11 41 7 54 -6 77
-1 68 13 -3 6 -11 5 -20 -2 -8 -6 -14 -7 -14 -2 0 4 -18 7 -40 5 -37 -4 -40
-2 -40 22 0 14 -3 27 -7 27 -5 1 -17 3 -28 4 -11 1 -37 10 -59 19 -21 9 -42
13 -47 10 -5 -3 -9 0 -9 5 0 6 -3 10 -7 9 -5 -1 -19 4 -32 11 -13 7 -51 21
-85 32 -34 10 -140 45 -236 79 -96 34 -195 67 -220 75 -25 8 -91 30 -148 49
-57 20 -110 36 -117 36 -8 0 -20 -10 -26 -22z"/>
<path d="M4091 4463 c-1 -18 4 -23 25 -23 14 0 23 4 19 10 -3 6 -12 10 -20 10
-7 0 -16 6 -18 13 -3 6 -6 2 -6 -10z"/>
<path d="M4163 4463 c9 -2 25 -2 35 0 9 3 1 5 -18 5 -19 0 -27 -2 -17 -5z"/>
<path d="M3973 4343 c9 -2 23 -2 30 0 6 3 -1 5 -18 5 -16 0 -22 -2 -12 -5z"/>
<path d="M4794 4341 c4 -6 1 -11 -8 -11 -10 0 -16 -9 -16 -25 0 -16 6 -25 16
-25 9 0 14 -6 11 -12 -2 -7 -12 -12 -21 -12 -9 1 -16 -2 -16 -7 0 -5 -7 -6
-15 -3 -19 8 -19 -10 0 -26 8 -7 12 -17 8 -23 -4 -6 0 -8 10 -4 9 3 19 2 23
-4 4 -6 14 -5 29 5 17 11 25 12 34 3 10 -9 16 -8 27 7 16 23 12 60 -10 82 -9
8 -16 19 -16 23 0 3 -14 15 -31 25 -18 11 -29 14 -25 7z m-4 -121 c0 -5 -5
-10 -11 -10 -5 0 -7 5 -4 10 3 6 8 10 11 10 2 0 4 -4 4 -10z m40 6 c0 -11 -19
-15 -25 -6 -3 5 1 10 9 10 9 0 16 -2 16 -4z"/>
<path d="M4038 4313 c7 -3 16 -2 19 1 4 3 -2 6 -13 5 -11 0 -14 -3 -6 -6z"/>
<path d="M3935 4290 c3 -5 11 -10 16 -10 6 0 7 5 4 10 -3 6 -11 10 -16 10 -6
0 -7 -4 -4 -10z"/>
<path d="M4897 4208 c8 -12 9 -19 4 -45 0 -4 -7 2 -15 13 -14 18 -15 18 -22 1
-6 -17 -7 -17 -25 -1 -19 17 -19 16 -15 -7 3 -13 5 -27 5 -31 1 -5 7 -8 15 -8
8 0 18 -5 22 -12 5 -8 2 -9 -9 -5 -10 4 -24 10 -32 13 -8 3 -15 1 -15 -5 0 -6
6 -11 13 -11 8 0 19 -10 25 -22 10 -21 11 -22 11 -3 1 17 3 17 11 5 6 -10 10
-11 10 -2 0 6 9 12 20 12 11 0 20 7 20 15 0 14 12 19 33 16 14 -2 7 16 -13 34
-11 10 -18 20 -15 23 3 3 0 11 -6 19 -15 17 -35 18 -22 1z m-9 -93 c-3 -3 -9
2 -12 12 -6 14 -5 15 5 6 7 -7 10 -15 7 -18z"/>
<path d="M4026 4165 c4 -8 8 -15 10 -15 2 0 4 7 4 15 0 8 -4 15 -10 15 -5 0
-7 -7 -4 -15z"/>
<path d="M4076 4035 c-12 -89 -18 -165 -13 -165 3 0 19 26 36 59 21 41 29 67
25 87 -3 16 -7 30 -10 33 -2 2 0 9 5 15 6 7 2 11 -14 11 -20 0 -24 -6 -29 -40z"/>
<path d="M4895 4070 c-4 -6 3 -10 14 -10 25 0 27 6 6 13 -8 4 -17 2 -20 -3z"/>
<path d="M4140 4045 c-7 -9 -11 -18 -8 -20 3 -3 11 1 18 10 7 9 11 18 8 20 -3
3 -11 -1 -18 -10z"/>
<path d="M4162 3947 c-6 -7 -7 -18 -3 -26 7 -10 10 -8 16 8 8 27 2 36 -13 18z"/>
<path d="M4100 3848 c-50 -76 -50 -81 -24 -203 9 -44 19 -73 22 -65 3 8 8 17
11 20 3 3 17 25 30 49 20 37 25 63 29 146 3 87 1 103 -12 108 -12 5 -27 -10
-56 -55z"/>
<path d="M4250 3879 c0 -5 5 -7 10 -4 6 3 10 8 10 11 0 2 -4 4 -10 4 -5 0 -10
-5 -10 -11z"/>
<path d="M4196 3850 c-3 -18 -6 -49 -6 -69 l0 -36 24 45 c13 25 21 47 17 50
-4 3 -12 13 -18 24 -9 16 -11 14 -17 -14z"/>
</g>
</svg>
